<?xml version="1.0" encoding="UTF-8"?>
<svg version="1.1" xmlns="http://www.w3.org/2000/svg" width="252" height="252">
<path d="M0 0 C0.7213916 0.21430664 1.4427832 0.42861328 2.18603516 0.64941406 C34.40876767 10.43805755 60.93753612 32.33512354 76.93261719 61.92822266 C91.67364022 90.54037304 96.55805132 125.88905212 87 157 C86.78569336 157.7213916 86.57138672 158.4427832 86.35058594 159.18603516 C76.56194245 191.40876767 54.66487646 217.93753612 25.07177734 233.93261719 C-3.54037304 248.67364022 -38.88905212 253.55805132 -70 244 C-70.7213916 243.78569336 -71.4427832 243.57138672 -72.18603516 243.35058594 C-104.40876767 233.56194245 -130.93753612 211.66487646 -146.93261719 182.07177734 C-161.67364022 153.45962696 -166.55805132 118.11094788 -157 87 C-156.78569336 86.2786084 -156.57138672 85.5572168 -156.35058594 84.81396484 C-146.56194245 52.59123233 -124.66487646 26.06246388 -95.07177734 10.06738281 C-66.45962696 -4.67364022 -31.11094788 -9.55805132 0 0 Z " fill="#050D13" transform="translate(161,4)"/>
<path d="M0 0 C1.28302002 0.02618408 2.56604004 0.05236816 3.88793945 0.0793457 C4.571772 0.08642044 5.25560455 0.09349518 5.9601593 0.1007843 C8.14163229 0.12874691 10.32052564 0.19147631 12.5012207 0.25512695 C13.9810013 0.28020798 15.46082219 0.30302151 16.94067383 0.32348633 C20.56585934 0.3785756 24.18953823 0.46485588 27.8137207 0.56762695 C33.02211118 12.38946209 33.02211118 12.38946209 32.8137207 18.56762695 C31.17650081 21.89877991 29.00459063 24.68018062 26.6887207 27.56762695 C25.51706896 29.08662679 24.34777304 30.60744683 23.1809082 32.13012695 C22.61082031 32.86231445 22.04073242 33.59450195 21.45336914 34.34887695 C19.3757039 37.16034535 17.59762089 40.10266465 15.86108398 43.1340332 C15.34263916 43.84366211 15.34263916 43.84366211 14.8137207 44.56762695 C14.1537207 44.56762695 13.4937207 44.56762695 12.8137207 44.56762695 C11.8237207 40.27762695 10.8337207 35.98762695 9.8137207 31.56762695 C9.1537207 31.56762695 8.4937207 31.56762695 7.8137207 31.56762695 C7.05188477 32.90954102 7.05188477 32.90954102 6.2746582 34.27856445 C5.21606561 36.14318676 4.15281579 38.00453986 3.07714844 39.859375 C1.38854162 42.77344686 -0.23748112 45.67067545 -1.73706055 48.6887207 C-3.06239256 51.26098481 -4.22218148 53.43985431 -6.1862793 55.56762695 C-8.61506076 56.23344808 -10.68288999 56.31923377 -13.1940918 56.2980957 C-13.85151367 56.38704102 -14.50893555 56.47598633 -15.1862793 56.56762695 C-17.34875151 59.47013997 -17.34875151 59.47013997 -18.1862793 62.56762695 C-15.8762793 62.56762695 -13.5662793 62.56762695 -11.1862793 62.56762695 C-12.10612528 66.82068451 -14.14973129 70.18651811 -16.3737793 73.88012695 C-16.80360107 74.60200195 -17.23342285 75.32387695 -17.67626953 76.06762695 C-19.17213747 78.57218971 -20.67809489 81.07046174 -22.1862793 83.56762695 C-22.78923828 84.56713379 -23.39219727 85.56664062 -24.01342773 86.59643555 C-25.92169993 89.75564293 -27.83400176 92.91235852 -29.7487793 96.06762695 C-30.36841553 97.08896729 -30.98805176 98.11030762 -31.62646484 99.16259766 C-32.20436768 100.11094482 -32.78227051 101.05929199 -33.37768555 102.03637695 C-33.89532471 102.88651367 -34.41296387 103.73665039 -34.94628906 104.61254883 C-36.1862793 106.56762695 -36.1862793 106.56762695 -37.1862793 107.56762695 C-39.25890006 107.65529808 -41.33448224 107.67458568 -43.40893555 107.6652832 C-45.29902344 107.66044922 -45.29902344 107.66044922 -47.22729492 107.65551758 C-48.56779038 107.64716099 -49.90828518 107.63869603 -51.2487793 107.63012695 C-52.59317872 107.62511355 -53.93757989 107.62055037 -55.28198242 107.61645508 C-58.5834587 107.60462183 -61.88484733 107.58813666 -65.1862793 107.56762695 C-64.55806947 104.50317835 -63.54062595 102.20908266 -61.9206543 99.5402832 C-61.44853516 98.7575 -60.97641602 97.9747168 -60.48999023 97.16821289 C-59.72090332 95.91186035 -59.72090332 95.91186035 -58.9362793 94.63012695 C-58.14785645 93.32930176 -58.14785645 93.32930176 -57.34350586 92.00219727 C-51.35744871 82.15007138 -45.28064279 72.35302656 -39.1862793 62.56762695 C-41.8262793 62.56762695 -44.4662793 62.56762695 -47.1862793 62.56762695 C-45.4362793 56.81762695 -45.4362793 56.81762695 -43.1862793 54.56762695 C-41.0222168 54.37231445 -41.0222168 54.37231445 -38.5612793 54.44262695 C-37.74401367 54.46067383 -36.92674805 54.4787207 -36.0847168 54.49731445 C-35.45823242 54.52051758 -34.83174805 54.5437207 -34.1862793 54.56762695 C-33.93048096 53.87266113 -33.67468262 53.17769531 -33.41113281 52.46166992 C-32.03808086 49.21746863 -30.3777045 46.29804826 -28.58862305 43.26293945 C-28.23809372 42.66625458 -27.88756439 42.0695697 -27.52641296 41.45480347 C-26.39561962 39.53204109 -25.25983547 37.61228364 -24.1237793 35.69262695 C-23.34733754 34.37505845 -22.57113351 33.05734982 -21.79516602 31.73950195 C-16.63763819 22.9882472 -11.44518222 14.2583961 -6.1862793 5.56762695 C-5.80286377 4.695979 -5.41944824 3.82433105 -5.02441406 2.92626953 C-3.1862793 0.56762695 -3.1862793 0.56762695 0 0 Z " fill="#F8F9F9" transform="translate(119.186279296875,72.432373046875)"/>
<path d="M0 0 C3 1 3 1 4.58984375 3.51953125 C5.06337317 7.53776659 4.6820059 8.01378704 2.37890625 11.13671875 C1.12551166 12.66916721 -0.14787473 14.18541379 -1.4375 15.6875 C-2.76001377 17.30051937 -4.07905857 18.9163895 -5.39453125 20.53515625 C-6.0282666 21.30875488 -6.66200195 22.08235352 -7.31494141 22.87939453 C-9.2827126 25.35578697 -10.98966958 27.91867233 -12.625 30.625 C-15.40219533 35.18405499 -18.47727591 39.42925761 -21.6875 43.6875 C-22.19112061 44.36409668 -22.69474121 45.04069336 -23.21362305 45.73779297 C-25.89046737 49.30944525 -28.63643171 52.77553066 -31.546875 56.16015625 C-37.70122362 62.96223393 -37.70122362 62.96223393 -40.1171875 71.42578125 C-39.33653224 74.46882094 -38.28485074 77.13947083 -37 80 C-36.53125 82.29296875 -36.53125 82.29296875 -36.3125 84.25 C-36.1578125 85.61125 -36.1578125 85.61125 -36 87 C-33.69 87 -31.38 87 -29 87 C-29 89.64 -29 92.28 -29 95 C-30.32 95 -31.64 95 -33 95 C-32.80889648 95.61294922 -32.61779297 96.22589844 -32.42089844 96.85742188 C-28.94225398 108.05103833 -25.54038253 119.21957019 -22.82421875 130.625 C-21.97390572 134.1068505 -20.98464878 137.55372927 -20 141 C-29.24 141 -38.48 141 -48 141 C-48.99 138.03 -49.98 135.06 -51 132 C-51.391875 130.9275 -51.78375 129.855 -52.1875 128.75 C-53 126 -53 126 -53 121 C-66.2 121 -79.4 121 -93 121 C-90.69 117.04 -88.38 113.08 -86 109 C-85.0925 107.1025 -84.185 105.205 -83.25 103.25 C-81.39074343 100.53695895 -80.10792102 99.21533888 -76.83447266 98.57910156 C-71.19057654 98.13639986 -65.62846403 98.49394429 -60 99 C-60.33 97.80375 -60.66 96.6075 -61 95.375 C-63.04185919 86.86382849 -63.04185919 86.86382849 -61.02832031 83.26171875 C-59.63321786 81.27320063 -58.15403888 79.38741458 -56.625 77.5 C-55.50899016 76.07012265 -54.39442835 74.63911405 -53.28125 73.20703125 C-52.72308594 72.49627441 -52.16492188 71.78551758 -51.58984375 71.05322266 C-49.34781779 68.15773151 -47.23061722 65.18287051 -45.125 62.1875 C-41.22694442 56.68412978 -37.25462435 51.238777 -33.25 45.8125 C-32.65864258 45.01110596 -32.06728516 44.20971191 -31.45800781 43.3840332 C-28.44702135 39.30668955 -25.43154908 35.23269076 -22.4140625 31.16015625 C-14.79976892 20.87113554 -7.33406288 10.49066504 0 0 Z " fill="#F7F8F8" transform="translate(198,40)"/>
<path d="M0 0 C3 1 3 1 4.59375 3.515625 C5.06424847 7.55105418 4.66351836 8.03620772 2.34375 11.171875 C1.08116712 12.71339672 -0.20123224 14.23883917 -1.5 15.75 C-2.80871042 17.34305779 -4.11344785 18.93938828 -5.4140625 20.5390625 C-6.03958008 21.30379883 -6.66509766 22.06853516 -7.30957031 22.85644531 C-10.30702779 26.65738071 -12.74139075 30.71939771 -15 35 C-15.495 33.515 -15.495 33.515 -16 32 C-16.66 32 -17.32 32 -18 32 C-18 31.34 -18 30.68 -18 30 C-18.99 29.67 -19.98 29.34 -21 29 C-20.57702637 28.44127197 -20.15405273 27.88254395 -19.71826172 27.30688477 C-17.76787543 24.72740172 -15.82142376 22.14497422 -13.875 19.5625 C-13.20984375 18.68400391 -12.5446875 17.80550781 -11.859375 16.90039062 C-7.70905162 11.38697084 -3.75426299 5.79069843 0 0 Z " fill="#EFF0EE" transform="translate(198,40)"/>
<path d="M0 0 C2 3 2 3 2 6 C2.66 6.33 3.32 6.66 4 7 C2.40956621 12.08938811 -0.7446951 15.87456643 -4 20 C-5.07174763 16.34811918 -4.76411467 13.73567172 -4 10 C-5.98 10.99 -5.98 10.99 -8 12 C-6.85573734 10.186508 -5.70954608 8.37423275 -4.5625 6.5625 C-3.60537109 5.04849609 -3.60537109 5.04849609 -2.62890625 3.50390625 C-1 1 -1 1 0 0 Z " fill="#15313E" transform="translate(142,104)"/>
<path d="M0 0 C0.66 0.66 1.32 1.32 2 2 C1.625 5.625 1.625 5.625 1 9 C0.21625 9.2475 -0.5675 9.495 -1.375 9.75 C-4.09410862 10.7662905 -4.09410862 10.7662905 -5.3125 13 C-6.10835992 14.96275128 -6.10835992 14.96275128 -6 17 C-7.62553283 18.70680947 -9.29115995 20.37660195 -11 22 C-11.66 21.67 -12.32 21.34 -13 21 C-11.02320506 17.6860791 -9.04316902 14.37410665 -7.0625 11.0625 C-6.49853516 10.11697266 -5.93457031 9.17144531 -5.35351562 8.19726562 C-4.81533203 7.29814453 -4.27714844 6.39902344 -3.72265625 5.47265625 C-3.22515869 4.64000244 -2.72766113 3.80734863 -2.21508789 2.94946289 C-1 1 -1 1 0 0 Z " fill="#1E343E" transform="translate(128,102)"/>
<path d="M0 0 C0.66 0 1.32 0 2 0 C1.3214644 3.45730044 -0.01555746 6.19237449 -1.75 9.25 C-2.23984375 10.14203125 -2.7296875 11.0340625 -3.234375 11.953125 C-5 14 -5 14 -7.703125 14.296875 C-8.46109375 14.19890625 -9.2190625 14.1009375 -10 14 C-3.07432432 3.40371622 -3.07432432 3.40371622 0 0 Z " fill="#101B23" transform="translate(179,79)"/>
<path d="M0 0 C1.4540625 0.0309375 1.4540625 0.0309375 2.9375 0.0625 C1.9475 0.5575 1.9475 0.5575 0.9375 1.0625 C0.9375 3.0425 0.9375 5.0225 0.9375 7.0625 C-1.3725 7.0625 -3.6825 7.0625 -6.0625 7.0625 C-3.83347902 0.07823427 -3.83347902 0.07823427 0 0 Z " fill="#122831" transform="translate(107.0625,127.9375)"/>
<path d="M0 0 C0.99 0.33 1.98 0.66 3 1 C3 1.66 3 2.32 3 3 C7.95 3.33 12.9 3.66 18 4 C18 4.33 18 4.66 18 5 C11.07 5 4.14 5 -3 5 C-2.01 3.35 -1.02 1.7 0 0 Z " fill="#EBEDEB" transform="translate(108,156)"/>
<path d="M0 0 C0.99 0.33 1.98 0.66 3 1 C4.1875 4.0625 4.1875 4.0625 5 7 C2.525 6.01 2.525 6.01 0 5 C-1.65 6.32 -3.3 7.64 -5 9 C-3.50163895 5.88801935 -1.80066242 2.9465385 0 0 Z " fill="#DDDEDC" transform="translate(198,40)"/>
<path d="M0 0 C0.640625 1.8359375 0.640625 1.8359375 1 4 C-1.46026571 6.87030999 -3.85489214 8.90326143 -7 11 C-5.22054913 6.95579349 -2.60470327 3.53921513 0 0 Z " fill="#E9ECEC" transform="translate(167,83)"/>
<path d="M0 0 C0.33 0.99 0.66 1.98 1 3 C-0.109375 5.04296875 -0.109375 5.04296875 -1.75 7.1875 C-2.28109375 7.90292969 -2.8121875 8.61835937 -3.359375 9.35546875 C-3.90078125 9.89816406 -4.4421875 10.44085938 -5 11 C-5.99 11 -6.98 11 -8 11 C-5.36 7.37 -2.72 3.74 0 0 Z " fill="#1E3742" transform="translate(142,104)"/>
<path d="M0 0 C0.66 0.99 1.32 1.98 2 3 C1.236875 3.7425 0.47375 4.485 -0.3125 5.25 C-2.4393702 7.4263323 -4.2559956 9.52167796 -6 12 C-6.66 11.67 -7.32 11.34 -8 11 C-5.36 7.37 -2.72 3.74 0 0 Z " fill="#21313A" transform="translate(168,93)"/>
<path d="M0 0 C0.66 0.66 1.32 1.32 2 2 C-1.625 6.875 -1.625 6.875 -5 8 C-3.62845496 5.04590299 -2.01136276 2.55991624 0 0 Z " fill="#131C22" transform="translate(202,47)"/>
</svg>
